<svg width="3100" height="3059" viewBox="0 0 3100 3059" fill="none" xmlns="http://www.w3.org/2000/svg">
<mask id="mask0_307_6359" style="mask-type:alpha" maskUnits="userSpaceOnUse" x="0" y="0" width="3101" height="3059">
<rect x="0.000976562" y="0.00195312" width="3100" height="3058" fill="#D9D9D9"/>
</mask>
<g mask="url(#mask0_307_6359)">
<circle cx="1306.6" cy="1227.7" r="15.4958" transform="rotate(-36 1306.6 1227.7)" fill="#B6D1F4"/>
<circle cx="1176.23" cy="1428.57" r="15.4958" transform="rotate(-72 1176.23 1428.57)" fill="#B6D1F4"/>
<circle cx="1188.83" cy="1667.71" r="15.4958" transform="rotate(-108 1188.83 1667.71)" fill="#B6D1F4"/>
<circle cx="1339.58" cy="1853.77" r="15.4958" transform="rotate(-144 1339.58 1853.77)" fill="#B6D1F4"/>
<circle cx="1570.91" cy="1915.69" r="15.4958" transform="rotate(180 1570.91 1915.69)" fill="#B6D1F4"/>
<circle cx="1794.45" cy="1829.81" r="15.4958" transform="rotate(144 1794.45 1829.81)" fill="#B6D1F4"/>
<circle cx="1924.82" cy="1628.94" r="15.4958" transform="rotate(108 1924.82 1628.94)" fill="#B6D1F4"/>
<circle cx="1912.22" cy="1389.81" r="15.4958" transform="rotate(72 1912.22 1389.81)" fill="#B6D1F4"/>
<circle cx="1761.47" cy="1203.74" r="15.4958" transform="rotate(36 1761.47 1203.74)" fill="#B6D1F4"/>
<circle cx="1530.14" cy="1141.83" r="15.4958" fill="#B6D1F4"/>
<circle cx="1173.12" cy="1200.34" r="26.3185" transform="rotate(-47.5036 1173.12 1200.34)" fill="#B6D1F4"/>
<circle cx="1052.16" cy="1484.9" r="26.3185" transform="rotate(-83.5036 1052.16 1484.9)" fill="#B6D1F4"/>
<circle cx="1121.56" cy="1786.21" r="26.3185" transform="rotate(-119.504 1121.56 1786.21)" fill="#B6D1F4"/>
<circle cx="1354.81" cy="1989.18" r="26.3185" transform="rotate(-155.504 1354.81 1989.18)" fill="#B6D1F4"/>
<circle cx="1662.81" cy="2016.29" r="26.3185" transform="rotate(168.496 1662.81 2016.29)" fill="#B6D1F4"/>
<circle cx="1927.93" cy="1857.18" r="26.3185" transform="rotate(132.496 1927.93 1857.18)" fill="#B6D1F4"/>
<circle cx="2048.89" cy="1572.62" r="26.3185" transform="rotate(96.4964 2048.89 1572.62)" fill="#B6D1F4"/>
<circle cx="1979.49" cy="1271.32" r="26.3185" transform="rotate(60.4964 1979.49 1271.32)" fill="#B6D1F4"/>
<circle cx="1746.24" cy="1068.35" r="26.3185" transform="rotate(24.4964 1746.24 1068.35)" fill="#B6D1F4"/>
<circle cx="1438.24" cy="1041.24" r="26.3185" transform="rotate(-11.5036 1438.24 1041.24)" fill="#B6D1F4"/>
<circle cx="1017.6" cy="1243.12" r="36.4079" transform="rotate(-61.2791 1017.6 1243.12)" fill="#B6D1F4"/>
<circle cx="951.492" cy="1610.92" r="36.4079" transform="rotate(-97.2791 951.492 1610.92)" fill="#B6D1F4"/>
<circle cx="1114.19" cy="1947.34" r="36.4079" transform="rotate(-133.279 1114.19 1947.34)" fill="#B6D1F4"/>
<circle cx="1443.55" cy="2123.86" r="36.4079" transform="rotate(-169.279 1443.55 2123.86)" fill="#B6D1F4"/>
<circle cx="1813.78" cy="2073.09" r="36.4079" transform="rotate(154.721 1813.78 2073.09)" fill="#B6D1F4"/>
<circle cx="2083.45" cy="1814.4" r="36.4079" transform="rotate(118.721 2083.45 1814.4)" fill="#B6D1F4"/>
<circle cx="2149.56" cy="1446.6" r="36.4079" transform="rotate(82.7209 2149.56 1446.6)" fill="#B6D1F4"/>
<circle cx="1986.87" cy="1110.19" r="36.4079" transform="rotate(46.7209 1986.87 1110.19)" fill="#B6D1F4"/>
<circle cx="1657.5" cy="933.658" r="36.4079" transform="rotate(10.7209 1657.5 933.658)" fill="#B6D1F4"/>
<circle cx="1287.28" cy="984.429" r="36.4079" transform="rotate(-25.2791 1287.28 984.429)" fill="#B6D1F4"/>
<circle cx="857.611" cy="1344.96" r="48.8117" transform="rotate(-75.5851 857.611 1344.96)" fill="#B6D1F4"/>
<circle cx="881.911" cy="1787.35" r="48.8117" transform="rotate(-111.585 881.911 1787.35)" fill="#B6D1F4"/>
<circle cx="1161.6" cy="2130.97" r="48.8117" transform="rotate(-147.585 1161.6 2130.97)" fill="#B6D1F4"/>
<circle cx="1589.84" cy="2244.55" r="48.8117" transform="rotate(176.415 1589.84 2244.55)" fill="#B6D1F4"/>
<circle cx="2003.07" cy="2084.74" r="48.8117" transform="rotate(140.415 2003.07 2084.74)" fill="#B6D1F4"/>
<circle cx="2243.44" cy="1712.56" r="48.8117" transform="rotate(104.415 2243.44 1712.56)" fill="#B6D1F4"/>
<circle cx="2219.14" cy="1270.17" r="48.8117" transform="rotate(68.4149 2219.14 1270.17)" fill="#B6D1F4"/>
<circle cx="1939.45" cy="926.557" r="48.8117" transform="rotate(32.4149 1939.45 926.557)" fill="#B6D1F4"/>
<circle cx="1511.21" cy="812.963" r="48.8117" transform="rotate(-3.58511 1511.21 812.963)" fill="#B6D1F4"/>
<circle cx="1097.98" cy="972.782" r="48.8117" transform="rotate(-39.5851 1097.98 972.782)" fill="#B6D1F4"/>
<circle cx="724.729" cy="1505.44" r="62.1956" transform="rotate(-89.7132 724.729 1505.44)" fill="#B6D1F4"/>
<circle cx="868.735" cy="1995.28" r="62.1956" transform="rotate(-125.713 868.735 1995.28)" fill="#B6D1F4"/>
<circle cx="1273.17" cy="2306.94" r="62.1956" transform="rotate(-161.713 1273.17 2306.94)" fill="#B6D1F4"/>
<circle cx="1783.54" cy="2321.34" r="62.1956" transform="rotate(162.287 1783.54 2321.34)" fill="#B6D1F4"/>
<circle cx="2204.9" cy="2033.01" r="62.1956" transform="rotate(126.287 2204.9 2033.01)" fill="#B6D1F4"/>
<circle cx="2376.32" cy="1552.08" r="62.1956" transform="rotate(90.2868 2376.32 1552.08)" fill="#B6D1F4"/>
<circle cx="2232.32" cy="1062.23" r="62.1956" transform="rotate(54.2868 2232.32 1062.23)" fill="#B6D1F4"/>
<circle cx="1827.89" cy="750.586" r="62.1956" transform="rotate(18.2868 1827.89 750.586)" fill="#B6D1F4"/>
<circle cx="1317.52" cy="736.175" r="62.1956" transform="rotate(-17.7132 1317.52 736.175)" fill="#B6D1F4"/>
<circle cx="896.152" cy="1024.51" r="62.1956" transform="rotate(-53.7132 896.152 1024.51)" fill="#B6D1F4"/>
<circle cx="626.233" cy="1706.45" r="76.0667" transform="rotate(-102.898 626.233 1706.45)" fill="#B6D1F4"/>
<circle cx="907.204" cy="2215.8" r="76.0667" transform="rotate(-138.898 907.204 2215.8)" fill="#B6D1F4"/>
<circle cx="1433.91" cy="2462.73" r="76.0667" transform="rotate(-174.898 1433.91 2462.73)" fill="#B6D1F4"/>
<circle cx="2005.14" cy="2352.9" r="76.0667" transform="rotate(149.102 2005.14 2352.9)" fill="#B6D1F4"/>
<circle cx="2402.74" cy="1928.29" r="76.0667" transform="rotate(113.102 2402.74 1928.29)" fill="#B6D1F4"/>
<circle cx="2474.81" cy="1351.07" r="76.0667" transform="rotate(77.1016 2474.81 1351.07)" fill="#B6D1F4"/>
<circle cx="2193.84" cy="841.716" r="76.0667" transform="rotate(41.1016 2193.84 841.716)" fill="#B6D1F4"/>
<circle cx="1667.15" cy="594.801" r="76.0667" transform="rotate(5.10157 1667.15 594.801)" fill="#B6D1F4"/>
<circle cx="1095.91" cy="704.62" r="76.0667" transform="rotate(-30.8984 1095.91 704.62)" fill="#B6D1F4"/>
<circle cx="698.315" cy="1129.24" r="76.0667" transform="rotate(-66.8984 698.315 1129.24)" fill="#B6D1F4"/>
<circle cx="581.188" cy="1970.9" r="86.0618" transform="rotate(-116.554 581.188 1970.9)" fill="#B6D1F4"/>
<circle cx="1025.76" cy="2455.78" r="86.0618" transform="rotate(-152.554 1025.76 2455.78)" fill="#B6D1F4"/>
<circle cx="1670.45" cy="2586.51" r="86.0618" transform="rotate(171.446 1670.45 2586.51)" fill="#B6D1F4"/>
<circle cx="2268.86" cy="2314" r="86.0618" transform="rotate(135.446 2268.86 2314)" fill="#B6D1F4"/>
<circle cx="2592.94" cy="1741.25" r="86.0618" transform="rotate(99.4455 2592.94 1741.25)" fill="#B6D1F4"/>
<circle cx="2518.13" cy="1087.85" r="86.0618" transform="rotate(63.4455 2518.13 1087.85)" fill="#B6D1F4"/>
<circle cx="2073.73" cy="602.862" r="86.0618" transform="rotate(27.4455 2073.73 602.862)" fill="#B6D1F4"/>
<circle cx="1429.1" cy="471.809" r="86.0618" transform="rotate(-8.55449 1429.1 471.809)" fill="#B6D1F4"/>
<circle cx="830.469" cy="744.749" r="86.0618" transform="rotate(-44.5545 830.469 744.749)" fill="#B6D1F4"/>
<circle cx="506.875" cy="1317.16" r="86.0618" transform="rotate(-80.5545 506.875 1317.16)" fill="#B6D1F4"/>
<circle cx="617.985" cy="2260.52" r="93.7622" transform="rotate(-129.957 617.985 2260.52)" fill="#B6D1F4"/>
<circle cx="1225.71" cy="2668.47" r="93.7622" transform="rotate(-165.957 1225.71 2668.47)" fill="#B6D1F4"/>
<circle cx="1957.13" cy="2641.03" r="93.7622" transform="rotate(158.043 1957.13 2641.03)" fill="#B6D1F4"/>
<circle cx="2532.9" cy="2189.64" r="93.7622" transform="rotate(122.043 2532.9 2189.64)" fill="#B6D1F4"/>
<circle cx="2733.4" cy="1485.41" r="93.7622" transform="rotate(86.0432 2733.4 1485.41)" fill="#B6D1F4"/>
<circle cx="2481.4" cy="798.383" r="93.7622" transform="rotate(50.0432 2481.4 798.383)" fill="#B6D1F4"/>
<circle cx="1873.82" cy="390.274" r="93.7622" transform="rotate(14.0432 1873.82 390.274)" fill="#B6D1F4"/>
<circle cx="1142.39" cy="417.348" r="93.7622" transform="rotate(-21.9568 1142.39 417.348)" fill="#B6D1F4"/>
<circle cx="566.484" cy="869.267" r="93.7622" transform="rotate(-57.9568 566.484 869.267)" fill="#B6D1F4"/>
<circle cx="366.433" cy="1573.02" r="93.7622" transform="rotate(-93.9568 366.433 1573.02)" fill="#B6D1F4"/>
<circle cx="728.187" cy="2558.54" r="101.932" transform="rotate(-143.016 728.187 2558.54)" fill="#B6D1F4"/>
<circle cx="1490" cy="2844.82" r="101.932" transform="rotate(-179.016 1490 2844.82)" fill="#B6D1F4"/>
<circle cx="2274.49" cy="2628.37" r="101.932" transform="rotate(144.984 2274.49 2628.37)" fill="#B6D1F4"/>
<circle cx="2782.28" cy="1992.87" r="101.932" transform="rotate(108.984 2782.28 1992.87)" fill="#B6D1F4"/>
<circle cx="2819.42" cy="1179.6" r="101.932" transform="rotate(72.9843 2819.42 1179.6)" fill="#B6D1F4"/>
<circle cx="2371.3" cy="500.503" r="101.932" transform="rotate(36.9843 2371.3 500.503)" fill="#B6D1F4"/>
<circle cx="1609.6" cy="214.025" r="101.932" transform="rotate(0.984322 1609.6 214.025)" fill="#B6D1F4"/>
<circle cx="825.018" cy="430.091" r="101.932" transform="rotate(-35.0157 825.018 430.091)" fill="#B6D1F4"/>
<circle cx="317.204" cy="1066.18" r="101.932" transform="rotate(-71.0157 317.204 1066.18)" fill="#B6D1F4"/>
<circle cx="280.424" cy="1878.82" r="101.932" transform="rotate(-107.016 280.424 1878.82)" fill="#B6D1F4"/>
<circle cx="930.775" cy="2830.57" r="111.531" transform="rotate(-156.173 930.775 2830.57)" fill="#B6D1F4"/>
<circle cx="1813.75" cy="2945.85" r="111.531" transform="rotate(167.827 1813.75 2945.85)" fill="#B6D1F4"/>
<circle cx="2595.68" cy="2519.84" r="111.531" transform="rotate(131.827 2595.68 2519.84)" fill="#B6D1F4"/>
<circle cx="2978.42" cy="1716.29" r="111.531" transform="rotate(95.8272 2978.42 1716.29)" fill="#B6D1F4"/>
<circle cx="2815.45" cy="840.541" r="111.531" transform="rotate(59.8272 2815.45 840.541)" fill="#B6D1F4"/>
<circle cx="2168.86" cy="228.601" r="111.531" transform="rotate(23.8272 2168.86 228.601)" fill="#B6D1F4"/>
<circle cx="1285.96" cy="113.076" r="111.531" transform="rotate(-12.1728 1285.96 113.076)" fill="#B6D1F4"/>
<circle cx="503.836" cy="538.696" r="111.531" transform="rotate(-48.1728 503.836 538.696)" fill="#B6D1F4"/>
<circle cx="121.209" cy="1342.89" r="111.531" transform="rotate(-84.1728 121.209 1342.89)" fill="#B6D1F4"/>
<circle cx="284.416" cy="2217.87" r="111.531" transform="rotate(-120.173 284.416 2217.87)" fill="#B6D1F4"/>
</g>
</svg>
